<?xml version="1.0" standalone="no"?>
<!DOCTYPE svg PUBLIC "-//W3C//DTD SVG 20010904//EN"
 "http://www.w3.org/TR/2001/REC-SVG-20010904/DTD/svg10.dtd">
<svg version="1.0" xmlns="http://www.w3.org/2000/svg"
 width="260.000000pt" height="260.000000pt" viewBox="0 0 260.000000 260.000000"
 preserveAspectRatio="xMidYMid meet">
<metadata>
Created by potrace 1.14, written by Peter Selinger 2001-2017
</metadata>
<g transform="translate(0.000000,260.000000) scale(0.100000,-0.100000)"
fill="#000000" stroke="none">
<path d="M0 1300 l0 -1300 1300 0 1300 0 0 1300 0 1300 -310 0 c-301 0 -309
-1 -292 -18 9 -11 20 -17 23 -15 4 1 6 -8 5 -21 0 -13 -4 -22 -8 -20 -9 6 -38
-25 -38 -42 0 -8 -4 -14 -9 -14 -4 0 -18 -26 -29 -57 -40 -108 -93 -138 -162
-90 -41 27 -102 128 -130 213 l-22 64 -814 0 -814 0 0 -1300z m1241 1081 c22
-23 53 -69 69 -104 39 -81 39 -136 0 -197 -40 -62 -70 -121 -70 -138 0 -7 -14
-27 -31 -44 -26 -27 -32 -29 -45 -17 -14 15 -28 80 -39 184 -3 33 -15 104 -26
159 -19 94 -20 150 -4 189 6 14 17 17 57 13 42 -3 55 -9 89 -45z m754 -309
c17 -6 63 -20 103 -33 l72 -23 0 -103 c0 -57 -2 -103 -4 -103 -2 0 -42 18 -88
40 -105 51 -210 74 -305 67 -163 -12 -250 -91 -261 -238 -5 -76 8 -126 45
-170 37 -44 85 -65 254 -110 176 -46 254 -83 315 -145 67 -69 102 -150 115
-269 26 -221 -51 -395 -208 -473 -87 -44 -154 -57 -278 -56 -119 2 -238 26
-352 71 l-63 25 0 105 c0 58 3 103 8 101 4 -2 38 -20 75 -42 222 -126 468
-126 580 -1 28 31 54 95 62 152 8 63 -15 164 -49 208 -37 48 -127 90 -279 129
-273 70 -369 158 -399 365 -22 155 17 294 108 392 99 105 177 131 379 125 77
-2 154 -9 170 -14z m-1427 -710 l2 -702 315 0 315 0 0 -90 0 -90 -405 0 -405
0 0 788 c0 434 2 791 4 793 2 2 42 4 88 3 l83 0 3 -702z m1192 300 c0 -14 -11
-21 -26 -15 -21 8 -17 23 6 23 11 0 20 -4 20 -8z m186 -30 c18 -12 36 -52 30
-68 -12 -30 -65 13 -66 54 0 22 15 28 36 14z m-217 -659 c72 -21 93 -39 89
-76 -3 -28 -11 -36 -57 -59 -63 -32 -102 -35 -150 -10 -64 32 -95 106 -61 147
16 20 111 19 179 -2z"/>
</g>
</svg>
